<svg xmlns="http://www.w3.org/2000/svg" xmlns:xlink="http://www.w3.org/1999/xlink" width="2000" zoomAndPan="magnify" viewBox="0 0 1500 1499.999933" height="2000" preserveAspectRatio="xMidYMid meet" version="1.0"><defs><clipPath id="2da5ae5721"><path d="M 0 0 L 677.730469 0 L 677.730469 680.449219 L 0 680.449219 Z M 0 0 " clip-rule="nonzero"/></clipPath><clipPath id="45a16ef9aa"><path d="M 0 0 L 677.730469 0 L 677.730469 680.449219 L 0 680.449219 Z M 0 0 " clip-rule="nonzero"/></clipPath><clipPath id="a6227bdb3e"><rect x="0" width="678" y="0" height="681"/></clipPath><clipPath id="efb3311a16"><path d="M 818.40625 0 L 1496.148438 0 L 1496.148438 680.449219 L 818.40625 680.449219 Z M 818.40625 0 " clip-rule="nonzero"/></clipPath><clipPath id="8fe11de622"><path d="M 0.40625 0 L 678.148438 0 L 678.148438 680.449219 L 0.40625 680.449219 Z M 0.40625 0 " clip-rule="nonzero"/></clipPath><clipPath id="984fc2be47"><rect x="0" width="679" y="0" height="681"/></clipPath><clipPath id="b8aa3b90dc"><path d="M 0 819.542969 L 677.730469 819.542969 L 677.730469 1499.996094 L 0 1499.996094 Z M 0 819.542969 " clip-rule="nonzero"/></clipPath><clipPath id="96fb4b3871"><path d="M 0 0.542969 L 677.730469 0.542969 L 677.730469 680.996094 L 0 680.996094 Z M 0 0.542969 " clip-rule="nonzero"/></clipPath><clipPath id="623f15b7f2"><rect x="0" width="678" y="0" height="681"/></clipPath><clipPath id="675639ee68"><path d="M 818.40625 819.542969 L 1496.148438 819.542969 L 1496.148438 1499.996094 L 818.40625 1499.996094 Z M 818.40625 819.542969 " clip-rule="nonzero"/></clipPath><clipPath id="a7f89ab40b"><path d="M 0.40625 0.542969 L 678.148438 0.542969 L 678.148438 680.996094 L 0.40625 680.996094 Z M 0.40625 0.542969 " clip-rule="nonzero"/></clipPath><clipPath id="b225368f77"><rect x="0" width="679" y="0" height="681"/></clipPath><clipPath id="b705572570"><path d="M 338.859375 0 L 1016.601562 0 L 1016.601562 340.21875 L 338.859375 340.21875 Z M 338.859375 0 " clip-rule="nonzero"/></clipPath><clipPath id="835cf66023"><path d="M 0.859375 0 L 678.601562 0 L 678.601562 340.21875 L 0.859375 340.21875 Z M 0.859375 0 " clip-rule="nonzero"/></clipPath><clipPath id="8b64e5c129"><rect x="0" width="679" y="0" height="341"/></clipPath><clipPath id="afad370ca0"><path d="M 1157.277344 479.316406 L 1496.148438 479.316406 L 1496.148438 1159.769531 L 1157.277344 1159.769531 Z M 1157.277344 479.316406 " clip-rule="nonzero"/></clipPath><clipPath id="b78994d7d1"><path d="M 0.277344 0.316406 L 339.148438 0.316406 L 339.148438 680.769531 L 0.277344 680.769531 Z M 0.277344 0.316406 " clip-rule="nonzero"/></clipPath><clipPath id="876980ae51"><rect x="0" width="340" y="0" height="681"/></clipPath><clipPath id="d8816cb276"><path d="M 409.207031 1145.144531 L 1086.949219 1145.144531 L 1086.949219 1500 L 409.207031 1500 Z M 409.207031 1145.144531 " clip-rule="nonzero"/></clipPath><clipPath id="650fd50370"><path d="M 0.207031 0.144531 L 677.949219 0.144531 L 677.949219 355 L 0.207031 355 Z M 0.207031 0.144531 " clip-rule="nonzero"/></clipPath><clipPath id="4655102a76"><rect x="0" width="678" y="0" height="355"/></clipPath><clipPath id="de0760bbec"><path d="M 0 470.300781 L 338.859375 470.300781 L 338.859375 1150.753906 L 0 1150.753906 Z M 0 470.300781 " clip-rule="nonzero"/></clipPath><clipPath id="15f6f1704a"><path d="M 0 0.300781 L 338.859375 0.300781 L 338.859375 680.753906 L 0 680.753906 Z M 0 0.300781 " clip-rule="nonzero"/></clipPath><clipPath id="c218c11d14"><rect x="0" width="339" y="0" height="681"/></clipPath></defs><g clip-path="url(#2da5ae5721)"><g transform="matrix(1, 0, 0, 1, 0, 0.000000000000112861)"><g clip-path="url(#a6227bdb3e)"><g clip-path="url(#45a16ef9aa)"><path fill="#000000" d="M 677.730469 680.449219 L -0.0117188 680.449219 L -0.0117188 0.0585938 L 677.730469 0.0585938 Z M 677.730469 680.449219 " fill-opacity="1" fill-rule="nonzero"/></g></g></g></g><g clip-path="url(#efb3311a16)"><g transform="matrix(1, 0, 0, 1, 818, 0.000000000000112861)"><g clip-path="url(#984fc2be47)"><g clip-path="url(#8fe11de622)"><path fill="#000000" d="M 678.148438 680.449219 L 0.40625 680.449219 L 0.40625 0.0585938 L 678.148438 0.0585938 Z M 678.148438 680.449219 " fill-opacity="1" fill-rule="nonzero"/></g></g></g></g><g clip-path="url(#b8aa3b90dc)"><g transform="matrix(1, 0, 0, 1, 0, 819)"><g clip-path="url(#623f15b7f2)"><g clip-path="url(#96fb4b3871)"><path fill="#000000" d="M 677.730469 680.996094 L -0.0117188 680.996094 L -0.0117188 0.605469 L 677.730469 0.605469 Z M 677.730469 680.996094 " fill-opacity="1" fill-rule="nonzero"/></g></g></g></g><g clip-path="url(#675639ee68)"><g transform="matrix(1, 0, 0, 1, 818, 819)"><g clip-path="url(#b225368f77)"><g clip-path="url(#a7f89ab40b)"><path fill="#000000" d="M 678.148438 680.996094 L 0.40625 680.996094 L 0.40625 0.605469 L 678.148438 0.605469 Z M 678.148438 680.996094 " fill-opacity="1" fill-rule="nonzero"/></g></g></g></g><g clip-path="url(#b705572570)"><g transform="matrix(1, 0, 0, 1, 338, 0.000000000000112861)"><g clip-path="url(#8b64e5c129)"><g clip-path="url(#835cf66023)"><path fill="#000000" d="M 678.601562 340.21875 L 0.804688 340.21875 L 0.804688 -0.0078125 L 678.601562 -0.0078125 Z M 678.601562 340.21875 " fill-opacity="1" fill-rule="nonzero"/></g></g></g></g><g clip-path="url(#afad370ca0)"><g transform="matrix(1, 0, 0, 1, 1157, 479)"><g clip-path="url(#876980ae51)"><g clip-path="url(#b78994d7d1)"><path fill="#000000" d="M 339.148438 680.769531 L 0.277344 680.769531 L 0.277344 0.378906 L 339.148438 0.378906 Z M 339.148438 680.769531 " fill-opacity="1" fill-rule="nonzero"/></g></g></g></g><g clip-path="url(#d8816cb276)"><g transform="matrix(1, 0, 0, 1, 409, 1145)"><g clip-path="url(#4655102a76)"><g clip-path="url(#650fd50370)"><path fill="#000000" d="M 0.207031 0.144531 L 678.039062 0.144531 L 678.039062 355 L 0.207031 355 Z M 0.207031 0.144531 " fill-opacity="1" fill-rule="nonzero"/></g></g></g></g><g clip-path="url(#de0760bbec)"><g transform="matrix(1, 0, 0, 1, 0, 470)"><g clip-path="url(#c218c11d14)"><g clip-path="url(#15f6f1704a)"><path fill="#000000" d="M 338.859375 680.753906 L -0.0117188 680.753906 L -0.0117188 0.367188 L 338.859375 0.367188 Z M 338.859375 680.753906 " fill-opacity="1" fill-rule="nonzero"/></g></g></g></g><path stroke-linecap="butt" transform="matrix(0.75, 0, 0, 0.75, 0.00003335, 804.171775)" fill="none" stroke-linejoin="miter" d="M -0.0000444667 20.500135 L 1994.880336 20.500135 " stroke="#f0eeed" stroke-width="41" stroke-opacity="1" stroke-miterlimit="4"/><path stroke-linecap="butt" transform="matrix(0.75, 0, 0, 0.75, 0.00003335, 665.078131)" fill="none" stroke-linejoin="miter" d="M -0.0000444667 20.499994 L 1994.880336 20.499994 " stroke="#f0eeed" stroke-width="41" stroke-opacity="1" stroke-miterlimit="4"/><path stroke-linecap="butt" transform="matrix(0, -0.75, 0.75, 0, 803.042124, 1499.999851)" fill="none" stroke-linejoin="miter" d="M -0.000198933 20.501128 L 1999.999973 20.501128 " stroke="#f0eeed" stroke-width="41" stroke-opacity="1" stroke-miterlimit="4"/><path stroke-linecap="butt" transform="matrix(0, -0.75, 0.75, 0, 662.366352, 1499.999851)" fill="none" stroke-linejoin="miter" d="M -0.000198933 20.501115 L 1999.999973 20.501115 " stroke="#f0eeed" stroke-width="41" stroke-opacity="1" stroke-miterlimit="4"/></svg>